HIERARCHY
ROOT Hips
{
	OFFSET	0.00	0.00	0.00
	CHANNELS 6 Xposition Yposition Zposition Zrotation Xrotation Yrotation
	JOINT LeftUpLeg
	{
		OFFSET	 0.126116	-0.014019	-0.065224
		CHANNELS 3 Zrotation Xrotation Yrotation
		JOINT LeftLeg
		{
			OFFSET	 0.000000	 0.000000	 0.569914
			CHANNELS 3 Zrotation Xrotation Yrotation
			JOINT LeftFoot
			{
				OFFSET	 0.000000	 0.000000	 0.544423
				CHANNELS 3 Zrotation Xrotation Yrotation
				JOINT LeftToeBase
				{
					OFFSET	 0.000000	 0.000000	 0.207117
					CHANNELS 3 Zrotation Xrotation Yrotation
					End Site
					{
						OFFSET	 0.000000	 0.000000	 0.207117
					}
				}
			}
		}
	}
	JOINT RightUpLeg
	{
		OFFSET	-0.124023	-0.008373	-0.065224
		CHANNELS 3 Zrotation Xrotation Yrotation
		JOINT RightLeg
		{
			OFFSET	 0.000000	 0.000000	 0.570047
			CHANNELS 3 Zrotation Xrotation Yrotation
			JOINT RightFoot
			{
				OFFSET	 0.000000	 0.000000	 0.544354
				CHANNELS 3 Zrotation Xrotation Yrotation
				JOINT RightToeBase
				{
					OFFSET	 0.000000	 0.000000	 0.207540
					CHANNELS 3 Zrotation Xrotation Yrotation
					End Site
					{
						OFFSET	 0.000000	 0.000000	 0.207540
					}
				}
			}
		}
	}
	JOINT Spine
	{
		OFFSET	 0.000184	-0.007763	 0.117403
		CHANNELS 3 Zrotation Xrotation Yrotation
		JOINT Spine1
		{
			OFFSET	 0.000000	 0.000000	 0.137269
			CHANNELS 3 Zrotation Xrotation Yrotation
			JOINT Spine2
			{
				OFFSET	 0.000000	 0.000000	 0.156879
				CHANNELS 3 Zrotation Xrotation Yrotation
				JOINT LeftShoulder
				{
					OFFSET	 0.080501	-0.002496	 0.160144
					CHANNELS 3 Zrotation Xrotation Yrotation
					JOINT LeftArm
					{
						OFFSET	 0.000000	 0.000000	 0.164363
						CHANNELS 3 Zrotation Xrotation Yrotation
						JOINT LeftForeArm
						{
							OFFSET	 0.000000	 0.000000	 0.364576
							CHANNELS 3 Zrotation Xrotation Yrotation
							JOINT LeftHand
							{
								OFFSET	 0.000000	 0.000000	 0.360812
								CHANNELS 3 Zrotation Xrotation Yrotation
								JOINT LeftHandIndex1
								{
									OFFSET	 0.000000	 0.000000	 0.086006
									CHANNELS 3 Zrotation Xrotation Yrotation
									JOINT LeftHandIndex2
									{
										OFFSET	 0.000000	 0.000000	 0.047236
										CHANNELS 3 Zrotation Xrotation Yrotation
										JOINT LeftHandIndex3
										{
											OFFSET	-0.004284	-0.000551	 0.038166
											CHANNELS 3 Zrotation Xrotation Yrotation
											End Site
											{
												OFFSET	-0.004284	-0.000551	 0.038166
											}
										}
									}
								}
							}
						}
					}
				}
				JOINT Neck
				{
					OFFSET	 0.000000	 0.000000	 0.176489
					CHANNELS 3 Zrotation Xrotation Yrotation
					JOINT Head
					{
						OFFSET	 0.000000	-0.001747	 0.077940
						CHANNELS 3 Zrotation Xrotation Yrotation
						End Site
						{
							OFFSET	 0.000000	-0.001747	 0.077940
						}
					}
				}
				JOINT RightShoulder
				{
					OFFSET	-0.080363	 0.000306	 0.159706
					CHANNELS 3 Zrotation Xrotation Yrotation
					JOINT RightArm
					{
						OFFSET	 0.000000	 0.000000	 0.164196
						CHANNELS 3 Zrotation Xrotation Yrotation
						JOINT RightForeArm
						{
							OFFSET	 0.000000	 0.000000	 0.365611
							CHANNELS 3 Zrotation Xrotation Yrotation
							JOINT RightHand
							{
								OFFSET	 0.000000	 0.000000	 0.360648
								CHANNELS 3 Zrotation Xrotation Yrotation
								JOINT RightHandIndex1
								{
									OFFSET	 0.000000	 0.000000	 0.069977
									CHANNELS 3 Zrotation Xrotation Yrotation
									JOINT RightHandIndex2
									{
										OFFSET	 0.000000	 0.000000	 0.052305
										CHANNELS 3 Zrotation Xrotation Yrotation
										JOINT RightHandIndex3
										{
											OFFSET	 0.009002	-0.000782	 0.042196
											CHANNELS 3 Zrotation Xrotation Yrotation
											End Site
											{
												OFFSET	 0.009002	-0.000782	 0.042196
											}
										}
									}
								}
							}
						}
					}
				}
			}
		}
	}
}
MOTION
Frames:    12
Frame Time: 0.03333334
 0.000300	 0.019592	 1.273117	-0.002916	 0.003820	 0.174123	-8.248542	-1.766008	 179.033900	 1.466684	-12.473530	-0.729157	-5.218042	 71.378320	-1.097387	-2.385833	 28.452760	 0.000004	 8.088999	-1.857702	-179.284500	-1.458343	-12.082640	 0.692632	 4.991792	 71.008120	 1.139611	 2.384658	 28.388730	 0.000004	-5.021567	 2.657931	 0.292162	-2.157094	 3.889886	-0.793946	 6.529534	-4.786490	 1.424516	-91.776120	 78.527470	 179.999900	 60.619890	 41.075080	-60.984980	-8.574668	 0.880390	-2.534664	-31.769290	-19.129450	-4.894557	-2.635965	 4.993658	 6.788941	-5.165319	 0.784187	 3.516649	-5.225038	 0.466231	 0.424329	-0.000002	-3.783157	-0.089647	 6.344969	 4.496795	-0.249384	 89.782150	 78.203900	 180.000000	-64.572540	 42.024070	 56.876710	 7.518897	 5.306064	 12.566490	 32.603230	-19.955850	 9.640279	 6.112037	 4.509576	-0.364401	 4.968462	 1.518543	-9.347576	 5.168945	 0.703820	 2.021906
 0.000307	 0.019474	 1.275081	-0.002535	 0.004502	 0.174533	-8.079928	-1.765163	 179.020100	 1.466843	-12.461220	-0.728413	-5.228281	 71.047650	-1.080959	-2.385833	 28.452760	 0.000004	 7.920278	-1.855275	-179.272400	-1.458515	-12.068700	 0.691811	 5.001159	 70.677060	 1.125125	 2.384658	 28.388730	 0.000004	-5.858923	 2.583323	 0.279776	-2.139277	 4.148187	-0.768335	 6.473964	-5.122599	 1.434381	-91.776160	 78.527450	 180.000000	 60.683710	 41.123720	-61.013740	-9.071673	 0.767501	-2.648315	-33.167960	-22.705370	-5.479028	-2.635965	 4.993658	 6.788941	-5.165319	 0.784187	 3.516649	-5.225038	 0.466231	 0.424329	-0.000002	-3.783157	-0.089647	 6.277310	 4.347476	-0.238519	 89.782150	 78.203900	 180.000000	-64.244710	 41.177400	 58.590160	 7.124139	 4.935940	 12.392020	 34.397310	-24.128100	 10.003960	 6.112037	 4.509576	-0.364401	 4.968462	 1.518543	-9.347576	 5.168945	 0.703820	 2.021906
 0.000313	 0.019347	 1.277340	-0.002064	 0.005284	 0.173420	-7.887631	-1.762464	 179.005600	 1.467080	-12.443090	-0.727322	-5.237958	 70.669470	-1.063820	-2.385833	 28.452760	 0.000004	 7.728185	-1.853397	-179.257300	-1.458685	-12.055000	 0.691000	 5.011042	 70.301620	 1.109251	 2.384658	 28.388730	 0.000004	-6.912282	 2.499447	 0.264972	-2.103708	 4.438541	-0.734012	 6.364088	-5.503672	 1.434284	-91.776200	 78.527420	-180.000000	 60.711800	 41.176520	-61.009540	-9.707383	 0.618922	-2.785378	-35.057340	-27.066930	-6.466979	-2.635965	 4.993658	 6.788941	-5.165319	 0.784187	 3.516649	-5.225038	 0.466231	 0.424329	-0.000002	-3.783157	-0.089647	 6.155290	 4.184794	-0.225115	 89.782150	 78.203870	 179.999900	-62.762080	 39.716850	 59.830520	 6.099626	 5.367945	 14.536430	 36.597300	-29.323230	 10.690240	 6.112037	 4.509576	-0.364401	 4.968462	 1.518543	-9.347576	 5.168945	 0.703820	 2.021906
 0.000314	 0.019246	 1.279354	-0.001630	 0.005967	 0.171130	-7.716861	-1.758783	 178.993800	 1.467329	-12.423910	-0.726164	-5.244954	 70.332940	-1.049803	-2.385833	 28.452760	 0.000004	 7.557846	-1.852951	-179.242800	-1.458795	-12.045610	 0.690446	 5.019195	 69.970540	 1.095538	 2.384658	 28.388730	 0.000004	-7.918127	 2.426482	 0.251346	-2.058576	 4.691195	-0.699552	 6.225410	-5.838056	 1.423651	-91.776180	 78.527450	 180.000000	 60.698980	 41.217290	-61.006200	-10.327520	 0.434487	-2.830320	-36.990350	-30.905420	-7.661791	-2.635965	 4.993658	 6.788941	-5.165319	 0.784187	 3.516649	-5.225038	 0.466231	 0.424329	-0.000002	-3.783157	-0.089647	 6.007727	 4.047762	-0.212509	 89.782090	 78.203890	 180.000000	-60.372050	 37.941550	 61.272000	 4.510518	 5.861988	 17.357720	 37.960220	-34.161720	 11.245860	 6.112037	 4.509576	-0.364401	 4.968462	 1.518543	-9.347576	 5.168945	 0.703820	 2.021906
 0.000312	 0.019152	 1.281405	-0.001175	 0.006642	 0.167307	-7.528575	-1.753798	 178.982000	 1.467631	-12.400630	-0.724760	-5.233720	 69.986560	-1.040820	-2.385833	 28.452760	 0.000004	 7.395104	-1.853386	-179.227500	-1.458887	-12.038680	 0.690036	 5.042336	 69.632550	 1.078156	 2.384658	 28.388730	 0.000004	-9.004867	 2.353457	 0.237333	-1.999081	 4.944068	-0.660676	 6.043227	-6.175375	 1.401933	-91.776160	 78.527430	 180.000000	 60.589800	 41.228980	-60.771940	-11.129380	 0.353968	-3.153019	-39.054270	-34.456860	-9.148664	-2.635965	 4.993658	 6.788941	-5.165319	 0.784187	 3.516649	-5.225038	 0.466231	 0.424329	-0.000002	-3.783157	-0.089647	 5.818639	 3.914752	-0.199041	 89.782080	 78.203900	-180.000000	-57.385030	 35.953820	 65.399600	 2.532844	 5.034807	 17.223060	 38.549330	-38.970130	 11.595750	 6.112037	 4.509576	-0.364401	 4.968462	 1.518543	-9.347576	 5.168945	 0.703820	 2.021906
 0.000307	 0.019053	 1.283326	-0.000715	 0.007298	 0.161876	-7.348214	-1.746863	 178.972200	 1.467985	-12.373370	-0.723116	-5.239169	 69.627750	-1.028018	-2.385833	 28.452760	 0.000004	 7.214227	-1.855512	-179.209600	-1.458936	-12.034710	 0.689802	 5.048862	 69.286110	 1.064562	 2.384658	 28.388730	 0.000004	-10.166360	 2.280518	 0.222977	-1.923778	 5.196808	-0.617303	 5.813360	-6.515220	 1.367670	-91.776180	 78.527430	 180.000000	 60.356520	 41.193740	-60.214330	-11.923400	 0.445298	-3.870797	-41.366790	-37.308710	-10.867530	-2.635965	 4.993658	 6.788941	-5.165319	 0.784187	 3.516649	-5.225038	 0.466231	 0.424329	-0.000002	-3.783157	-0.089647	 5.584340	 3.785935	-0.184724	 89.782220	 78.203900	 179.999900	-53.173980	 33.427280	 69.233830	 0.108188	 4.597098	 18.483810	 38.367080	-42.992390	 11.759550	 6.112037	 4.509576	-0.364401	 4.968462	 1.518543	-9.347576	 5.168945	 0.703820	 2.021906
 0.000299	 0.018946	 1.285036	-0.000253	 0.007888	 0.154761	-7.165409	-1.738536	 178.963600	 1.468380	-12.342810	-0.721274	-5.243366	 69.263350	-1.016047	-2.385833	 28.452760	 0.000004	 7.031052	-1.859204	-179.190200	-1.458943	-12.034270	 0.689777	 5.054899	 68.937550	 1.051028	 2.384658	 28.388730	 0.000004	-11.359300	 2.209652	 0.208877	-1.833298	 5.442603	-0.570456	 5.537961	-6.848307	 1.320353	-91.776200	 78.527430	-180.000000	 60.051060	 41.132220	-59.548090	-12.776450	 0.565920	-4.641451	-43.537090	-38.861620	-12.479580	-2.635965	 4.993658	 6.788941	-5.165319	 0.784187	 3.516649	-5.225038	 0.466231	 0.424329	-0.000002	-3.783157	-0.089647	 5.307689	 3.664654	-0.169933	 89.782050	 78.203920	-180.000000	-48.276240	 30.413530	 74.753990	-2.360138	 3.550087	 17.470700	 36.944970	-45.495330	 11.336220	 6.112037	 4.509576	-0.364401	 4.968462	 1.518543	-9.347576	 5.168945	 0.703820	 2.021906
 0.000284	 0.018779	 1.286585	 0.000171	 0.008396	 0.145751	-6.976930	-1.728719	 178.956200	 1.468821	-12.308570	-0.719208	-5.246480	 68.887050	-1.004623	-2.385833	 28.452760	 0.000004	 6.842458	-1.865052	-179.168900	-1.458891	-12.038440	 0.690022	 5.060764	 68.581330	 1.037112	 2.384658	 28.388730	 0.000004	-12.571960	 2.140382	 0.195034	-1.725395	 5.683230	-0.519693	 5.210522	-7.176923	 1.258151	-91.776300	 78.527470	-179.999900	 59.663570	 41.030870	-58.748550	-13.697910	 0.723153	-5.474101	-45.198490	-38.564090	-13.543870	-2.635965	 4.993658	 6.788941	-5.165319	 0.784187	 3.516649	-5.225038	 0.466231	 0.424329	-0.000002	-3.783157	-0.089647	 4.982779	 3.549731	-0.154512	 89.782150	 78.203900	 180.000000	-43.018400	 27.236670	 82.182070	-5.019912	 2.086889	 13.433430	 34.341800	-45.840820	 10.023630	 6.112037	 4.509576	-0.364401	 4.968462	 1.518543	-9.347576	 5.168945	 0.703820	 2.021906
 0.000261	 0.018582	 1.287894	 0.000567	 0.008794	 0.134908	-6.786088	-1.717528	 178.950300	 1.469297	-12.271240	-0.716960	-5.248465	 68.505490	-0.993938	-2.385833	 28.452760	 0.000004	 6.651708	-1.873100	-179.145900	-1.458776	-12.047500	 0.690558	 5.066350	 68.223870	 1.023019	 2.384658	 28.388730	 0.000004	-13.738010	 2.074723	 0.181967	-1.601476	 5.911818	-0.466210	 4.835553	-7.491364	 1.181251	-91.776140	 78.527430	 180.000000	 59.209820	 40.893510	-57.844510	-14.661780	 0.917803	-6.345432	-45.937960	-35.903870	-13.569340	-2.635965	 4.993658	 6.788941	-5.165319	 0.784187	 3.516649	-5.225038	 0.466231	 0.424329	-0.000002	-3.783157	-0.089647	 4.614588	 3.444046	-0.138821	 89.782160	 78.203900	 179.999900	-37.301220	 23.308960	 90.980740	-7.895543	 0.742794	 6.399082	 30.167350	-43.248790	 7.644586	 6.112037	 4.509576	-0.364401	 4.968462	 1.518543	-9.347576	 5.168945	 0.703820	 2.021906
 0.000226	 0.018448	 1.288939	 0.000903	 0.009060	 0.122368	-6.593849	-1.705354	 178.945800	 1.469806	-12.231740	-0.714579	-5.249439	 68.121020	-0.983864	-2.385833	 28.452760	 0.000004	 6.459853	-1.883466	-179.121500	-1.458600	-12.061690	 0.691396	 5.071619	 67.867260	 1.008820	 2.384658	 28.388730	 0.000004	-14.794510	 2.013766	 0.169874	-1.462400	 6.124680	-0.410824	 4.415945	-7.786169	 1.089940	-91.776250	 78.527490	-179.999900	 58.708330	 40.725020	-56.867120	-15.649150	 1.147256	-7.233673	-45.664810	-30.645880	-12.391030	-2.635965	 4.993658	 6.788941	-5.165319	 0.784187	 3.516649	-5.225038	 0.466231	 0.424329	-0.000002	-3.783157	-0.089647	 4.206362	 3.348729	-0.123027	 89.782070	 78.203900	-180.000000	-29.022320	 17.867820	 94.605640	-11.020480	 0.937602	 7.294715	 24.466800	-37.205750	 4.520186	 6.112037	 4.509576	-0.364401	 4.968462	 1.518543	-9.347576	 5.168945	 0.703820	 2.021906
 0.000219	 0.018348	 1.289401	 0.001161	 0.009144	 0.107777	-6.395978	-1.691932	 178.942800	 1.470345	-12.189410	-0.712030	-5.249446	 67.725330	-0.974153	-2.385833	 28.452760	 0.000004	 6.262714	-1.896512	-179.095000	-1.458355	-12.081690	 0.692576	 5.076759	 67.503850	 0.994108	 2.384658	 28.388730	 0.000004	-15.680920	 1.957111	 0.158738	-1.305198	 6.323457	-0.352558	 3.942961	-8.063178	 0.981879	-91.776170	 78.527470	 180.000000	 58.171880	 40.524970	-55.827720	-16.654240	 1.415281	-8.138583	-44.617540	-22.812130	-10.217890	-2.635965	 4.993658	 6.788941	-5.165319	 0.784187	 3.516649	-5.225038	 0.466231	 0.424329	-0.000002	-3.783157	-0.089647	 3.750019	 3.262402	-0.106843	 89.782090	 78.203900	-180.000000	-18.771810	 13.708530	 98.742200	-13.888340	 1.172356	 8.203681	 20.626130	-28.418700	 1.378029	 6.112037	 4.509576	-0.364401	 4.968462	 1.518543	-9.347576	 5.168945	 0.703820	 2.021906
 0.000202	 0.018244	 1.289919	 0.000999	 0.009443	 0.096511	-6.229712	-1.680721	 178.939100	 1.470794	-12.153880	-0.709891	-5.249245	 67.393920	-0.965904	-2.385833	 28.452760	 0.000004	 6.097806	-1.908764	-179.073600	-1.458127	-12.100220	 0.693671	 5.081170	 67.200380	 0.981324	 2.384658	 28.388730	 0.000004	-16.157350	 1.914481	 0.148238	-1.162852	 6.472869	-0.304245	 3.516559	-8.272434	 0.881398	-91.776160	 78.527450	 180.000000	 57.769420	 40.374410	-55.040650	-17.407730	 1.638681	-8.815884	-43.545770	-15.593020	-8.223585	-2.635965	 4.993658	 6.788941	-5.165319	 0.784187	 3.516649	-5.225038	 0.466231	 0.424329	-0.000002	-3.783157	-0.089647	 3.341236	 3.199188	-0.093345	 89.782100	 78.203870	 180.000000	-10.995170	 12.076050	 101.781100	-15.945450	 1.371829	 8.882268	 19.052850	-20.514930	-0.971113	 6.112037	 4.509576	-0.364401	 4.968462	 1.518543	-9.347576	 5.168945	 0.703820	 2.021906
